<svg width="28" height="44" viewBox="0 0 28 44" fill="none" xmlns="http://www.w3.org/2000/svg">
<path d="M14 8.25C14.3713 8.25 14.7274 8.39487 14.99 8.65273C15.2525 8.91059 15.4 9.26033 15.4 9.625V15.125C15.4 15.4897 15.2525 15.8394 14.99 16.0973C14.7274 16.3551 14.3713 16.5 14 16.5C13.6287 16.5 13.2726 16.3551 13.0101 16.0973C12.7475 15.8394 12.6 15.4897 12.6 15.125V9.625C12.6 9.26033 12.7475 8.91059 13.0101 8.65273C13.2726 8.39487 13.6287 8.25 14 8.25ZM25.2 30.25C25.2 33.1674 24.02 35.9653 21.9196 38.0282C19.8192 40.0911 16.9704 41.25 14 41.25C11.0296 41.25 8.18081 40.0911 6.0804 38.0282C3.98 35.9653 2.8 33.1674 2.8 30.25V13.75C2.8 10.8326 3.98 8.03473 6.0804 5.97183C8.18081 3.90893 11.0296 2.75 14 2.75C16.9704 2.75 19.8192 3.90893 21.9196 5.97183C24.02 8.03473 25.2 10.8326 25.2 13.75V30.25ZM14 0C10.287 0 6.72601 1.44866 4.1005 4.02728C1.475 6.60591 0 10.1033 0 13.75V30.25C0 33.8967 1.475 37.3941 4.1005 39.9727C6.72601 42.5513 10.287 44 14 44C17.713 44 21.274 42.5513 23.8995 39.9727C26.525 37.3941 28 33.8967 28 30.25V13.75C28 10.1033 26.525 6.60591 23.8995 4.02728C21.274 1.44866 17.713 0 14 0V0Z" fill="#27272E"/>
</svg>
