<svg width="322" height="89" viewBox="0 0 322 89" fill="none" xmlns="http://www.w3.org/2000/svg">
<path d="M110.896 29.184V27.06H113.488V42H110.896V39.912C109.6 41.592 107.896 42.432 105.784 42.432C103.768 42.432 102.052 41.736 100.636 40.344C99.22 38.952 98.512 37.008 98.512 34.512C98.512 32.064 99.208 30.156 100.6 28.788C102.016 27.396 103.744 26.7 105.784 26.7C107.944 26.7 109.648 27.528 110.896 29.184ZM106.072 29.004C104.704 29.004 103.54 29.496 102.58 30.48C101.644 31.44 101.176 32.784 101.176 34.512C101.176 36.168 101.608 37.524 102.472 38.58C103.36 39.612 104.56 40.128 106.072 40.128C107.584 40.128 108.784 39.588 109.672 38.508C110.584 37.428 111.04 36.108 111.04 34.548C111.04 32.772 110.536 31.404 109.528 30.444C108.52 29.484 107.368 29.004 106.072 29.004ZM118.397 27.06H124.049C125.417 27.06 126.461 27.348 127.181 27.924C128.045 28.62 128.477 29.556 128.477 30.732C128.477 32.028 127.937 33.024 126.857 33.72C127.601 33.912 128.225 34.248 128.729 34.728C129.521 35.496 129.917 36.456 129.917 37.608C129.917 39.048 129.401 40.176 128.369 40.992C127.481 41.664 126.305 42 124.841 42H118.397V27.06ZM120.989 33.144H123.725C124.421 33.144 124.973 33 125.381 32.712C125.861 32.352 126.101 31.836 126.101 31.164C126.101 30.564 125.861 30.084 125.381 29.724C125.021 29.484 124.325 29.364 123.293 29.364H120.989V33.144ZM120.989 39.696H124.193C125.297 39.696 126.077 39.528 126.533 39.192C127.109 38.76 127.397 38.208 127.397 37.536C127.397 36.816 127.145 36.252 126.641 35.844C126.185 35.484 125.405 35.304 124.301 35.304H120.989V39.696ZM133.866 27.06H136.458V36.924L146.682 25.908V42H144.09V32.028L133.866 43.044V27.06ZM161.377 29.436H156.697V42H154.105V29.436H149.425V27.06H161.377V29.436ZM176.385 40.2C174.897 41.688 173.013 42.432 170.733 42.432C168.453 42.432 166.557 41.688 165.045 40.2C163.557 38.712 162.813 36.84 162.813 34.584C162.813 32.304 163.557 30.42 165.045 28.932C166.557 27.444 168.453 26.7 170.733 26.7C173.013 26.7 174.897 27.444 176.385 28.932C177.897 30.42 178.653 32.304 178.653 34.584C178.653 36.84 177.897 38.712 176.385 40.2ZM174.441 30.48C173.433 29.496 172.197 29.004 170.733 29.004C169.269 29.004 168.021 29.508 166.989 30.516C165.981 31.5 165.477 32.856 165.477 34.584C165.477 36.312 165.993 37.668 167.025 38.652C168.057 39.636 169.293 40.128 170.733 40.128C172.173 40.128 173.409 39.636 174.441 38.652C175.473 37.668 175.989 36.312 175.989 34.584C175.989 32.832 175.473 31.464 174.441 30.48ZM182.196 42V25.944H198.144V42H192.96V30.12H187.38V42H182.196ZM214.476 27.744V25.944H219.66V42H214.476V40.056C213.396 41.712 211.812 42.54 209.724 42.54C207.252 42.54 205.248 41.724 203.712 40.092C202.152 38.436 201.372 36.432 201.372 34.08C201.372 31.416 202.2 29.256 203.856 27.6C205.32 26.136 207.18 25.404 209.436 25.404C211.644 25.404 213.324 26.184 214.476 27.744ZM210.732 29.868C209.604 29.868 208.656 30.252 207.888 31.02C207.096 31.812 206.7 32.784 206.7 33.936C206.7 35.088 207.06 36.048 207.78 36.816C208.572 37.656 209.592 38.076 210.84 38.076C211.896 38.076 212.796 37.704 213.54 36.96C214.38 36.168 214.8 35.16 214.8 33.936C214.8 32.712 214.404 31.728 213.612 30.984C212.844 30.24 211.884 29.868 210.732 29.868ZM228.864 40.164V50.244H223.68V25.944H228.864V27.852C230.112 26.22 231.78 25.404 233.868 25.404C236.148 25.404 238.044 26.16 239.556 27.672C241.164 29.28 241.968 31.368 241.968 33.936C241.968 36.528 241.116 38.676 239.412 40.38C237.972 41.82 236.16 42.54 233.976 42.54C231.696 42.54 229.992 41.748 228.864 40.164ZM232.608 29.868C231.48 29.868 230.52 30.264 229.728 31.056C228.912 31.872 228.504 32.856 228.504 34.008C228.504 35.088 228.888 36.036 229.656 36.852C230.472 37.668 231.456 38.076 232.608 38.076C233.664 38.076 234.588 37.704 235.38 36.96C236.22 36.168 236.64 35.148 236.64 33.9C236.64 32.724 236.232 31.752 235.416 30.984C234.624 30.24 233.688 29.868 232.608 29.868ZM257.256 26.304V31.02C256.272 30.204 255.144 29.796 253.872 29.796C252.672 29.796 251.688 30.18 250.92 30.948C250.128 31.74 249.732 32.748 249.732 33.972C249.732 35.124 250.092 36.084 250.812 36.852C251.604 37.716 252.648 38.148 253.944 38.148C255.168 38.148 256.272 37.728 257.256 36.888V41.568C256.08 42.216 254.712 42.54 253.152 42.54C250.656 42.54 248.58 41.736 246.924 40.128C245.244 38.496 244.404 36.456 244.404 34.008C244.404 31.464 245.292 29.352 247.068 27.672C248.676 26.16 250.716 25.404 253.188 25.404C254.628 25.404 255.984 25.704 257.256 26.304ZM265.344 31.776H272.364C272.172 31.008 271.824 30.384 271.32 29.904C270.672 29.304 269.856 29.004 268.872 29.004C267.816 29.004 266.94 29.352 266.244 30.048C265.764 30.552 265.464 31.128 265.344 31.776ZM277.152 34.332V34.872H265.164C265.164 35.976 265.488 36.888 266.136 37.608C266.76 38.28 267.648 38.616 268.8 38.616C269.664 38.616 270.36 38.46 270.888 38.148C271.296 37.932 271.668 37.488 272.004 36.816L276.9 37.32C276.348 39.072 275.316 40.416 273.804 41.352C272.484 42.144 270.792 42.54 268.728 42.54C265.992 42.54 263.856 41.772 262.32 40.236C260.712 38.628 259.908 36.564 259.908 34.044C259.908 31.5 260.724 29.388 262.356 27.708C263.892 26.172 265.944 25.404 268.512 25.404C271.224 25.404 273.348 26.208 274.884 27.816C276.396 29.424 277.152 31.596 277.152 34.332ZM285.571 40.164V50.244H280.387V25.944H285.571V27.852C286.819 26.22 288.487 25.404 290.575 25.404C292.855 25.404 294.751 26.16 296.263 27.672C297.871 29.28 298.675 31.368 298.675 33.936C298.675 36.528 297.823 38.676 296.119 40.38C294.679 41.82 292.867 42.54 290.683 42.54C288.403 42.54 286.699 41.748 285.571 40.164ZM289.315 29.868C288.187 29.868 287.227 30.264 286.435 31.056C285.619 31.872 285.211 32.856 285.211 34.008C285.211 35.088 285.595 36.036 286.363 36.852C287.179 37.668 288.163 38.076 289.315 38.076C290.371 38.076 291.295 37.704 292.087 36.96C292.927 36.168 293.347 35.148 293.347 33.9C293.347 32.724 292.939 31.752 292.123 30.984C291.331 30.24 290.395 29.868 289.315 29.868Z" fill="#16171B"/>
<g opacity="0.5" filter="url(#filter0_f_16_16)">
<mask id="mask0_16_16" style="mask-type:alpha" maskUnits="userSpaceOnUse" x="17" y="17" width="55" height="55">
<rect x="17" y="17" width="55" height="55" rx="17" fill="#C4C4C4"/>
</mask>
<g mask="url(#mask0_16_16)">
<g filter="url(#filter1_f_16_16)">
<circle cx="59.4052" cy="59.9929" r="27.2614" fill="#97CF26"/>
<circle cx="25.2902" cy="28.0404" r="22.957" fill="#00AAFF"/>
<circle cx="30.2637" cy="58.9626" r="12.7937" fill="#A169F7"/>
<circle cx="57.0291" cy="31.6681" r="17.9351" fill="#FF6163"/>
</g>
</g>
</g>
<rect x="14" y="4" width="60" height="60" rx="17" fill="white"/>
<mask id="mask1_16_16" style="mask-type:alpha" maskUnits="userSpaceOnUse" x="14" y="4" width="60" height="60">
<rect x="14" y="4" width="60" height="60" rx="17" fill="#C4C4C4"/>
</mask>
<g mask="url(#mask1_16_16)">
<g filter="url(#filter2_f_16_16)">
<circle cx="60.2602" cy="50.9013" r="29.7397" fill="#97CF26"/>
<circle cx="23.044" cy="16.044" r="25.044" fill="#00AAFF"/>
<circle cx="28.4695" cy="49.7774" r="13.9568" fill="#A169F7"/>
<circle cx="57.6681" cy="20.0015" r="19.5656" fill="#FF6163"/>
</g>
</g>
<g filter="url(#filter3_d_16_16)">
<path d="M38.45 43L36.95 39.22H29.39L27.86 43H23.06L31.13 22.99H35.36L43.25 43H38.45ZM30.74 35.68H35.69L33.23 28.96L30.74 35.68ZM45.4927 22.99H62.3227V43H57.7027V26.89H50.1127V43H45.4927V22.99Z" fill="white"/>
</g>
<defs>
<filter id="filter0_f_16_16" x="0" y="0" width="89" height="89" filterUnits="userSpaceOnUse" color-interpolation-filters="sRGB">
<feFlood flood-opacity="0" result="BackgroundImageFix"/>
<feBlend mode="normal" in="SourceGraphic" in2="BackgroundImageFix" result="shape"/>
<feGaussianBlur stdDeviation="8.5" result="effect1_foregroundBlur_16_16"/>
</filter>
<filter id="filter1_f_16_16" x="-18.6667" y="-15.9166" width="126.333" height="124.171" filterUnits="userSpaceOnUse" color-interpolation-filters="sRGB">
<feFlood flood-opacity="0" result="BackgroundImageFix"/>
<feBlend mode="normal" in="SourceGraphic" in2="BackgroundImageFix" result="shape"/>
<feGaussianBlur stdDeviation="10.5" result="effect1_foregroundBlur_16_16"/>
</filter>
<filter id="filter2_f_16_16" x="-23" y="-30" width="134" height="131.641" filterUnits="userSpaceOnUse" color-interpolation-filters="sRGB">
<feFlood flood-opacity="0" result="BackgroundImageFix"/>
<feBlend mode="normal" in="SourceGraphic" in2="BackgroundImageFix" result="shape"/>
<feGaussianBlur stdDeviation="10.5" result="effect1_foregroundBlur_16_16"/>
</filter>
<filter id="filter3_d_16_16" x="19.0601" y="22.99" width="47.2627" height="28.01" filterUnits="userSpaceOnUse" color-interpolation-filters="sRGB">
<feFlood flood-opacity="0" result="BackgroundImageFix"/>
<feColorMatrix in="SourceAlpha" type="matrix" values="0 0 0 0 0 0 0 0 0 0 0 0 0 0 0 0 0 0 127 0" result="hardAlpha"/>
<feOffset dy="4"/>
<feGaussianBlur stdDeviation="2"/>
<feComposite in2="hardAlpha" operator="out"/>
<feColorMatrix type="matrix" values="0 0 0 0 0 0 0 0 0 0 0 0 0 0 0 0 0 0 0.25 0"/>
<feBlend mode="normal" in2="BackgroundImageFix" result="effect1_dropShadow_16_16"/>
<feBlend mode="normal" in="SourceGraphic" in2="effect1_dropShadow_16_16" result="shape"/>
</filter>
</defs>
</svg>
